HIERARCHY
ROOT pelvis
{
  OFFSET 0 100 0
  CHANNELS 6 Xposition Yposition Zposition Zrotation Xrotation Yrotation
  JOINT pelvis_right_femur
  {
    OFFSET -10.78128 -3.44521 -0.5502486
    CHANNELS 3 Zrotation Xrotation Yrotation
    JOINT right_femur_tibia
    {
      OFFSET -0.8047443 -44.0398 -0.1307829
      CHANNELS 3 Zrotation Xrotation Yrotation
      JOINT right_tibia_foot
      {
        OFFSET 3.006224 -47.83518 -5
        CHANNELS 3 Zrotation Xrotation Yrotation
        End Site
        {
          OFFSET 0 -5 15
        }
      }
    }
  }
  JOINT pelvis_left_femur
  {
    OFFSET 10.78128 -3.44521 -0.5502486
    CHANNELS 3 Zrotation Xrotation Yrotation
    JOINT left_femur_tibia
    {
      OFFSET 0.8047443 -44.0398 -0.1307829
      CHANNELS 3 Zrotation Xrotation Yrotation
      JOINT left_tibia_foot
      {
        OFFSET -4.370144 -48.10324 -4.275266
        CHANNELS 3 Zrotation Xrotation Yrotation
        End Site
        {
          OFFSET 0 -5 15
        }
      }
    }
  }
  JOINT pelvis_spine1
  {
    OFFSET 0 6.468898 -3.129235
    CHANNELS 3 Zrotation Xrotation Yrotation
    JOINT spine1
    {
      OFFSET 0 23.15396 4.99043
      CHANNELS 3 Zrotation Xrotation Yrotation
      JOINT spine2
      {
        OFFSET 0 20.79997 -5.064912
        CHANNELS 3 Zrotation Xrotation Yrotation
        JOINT neck
        {
          OFFSET 0 14.38658 9.616178
          CHANNELS 3 Zrotation Xrotation Yrotation
          End Site
          {
            OFFSET 0 20 0
          }
        }
      }
      JOINT right_manubrium
      {
        OFFSET -5.722621 16.35077 3.967754
        CHANNELS 3 Zrotation Xrotation Yrotation
        JOINT right_clavicle
        {
          OFFSET -13.16364 1.694482 -4.693211
          CHANNELS 3 Zrotation Xrotation Yrotation
          JOINT right_humerus
          {
            OFFSET -28.5034 -0.3100689 -2.792744
            CHANNELS 3 Zrotation Xrotation Yrotation
            JOINT right_radius
            {
              OFFSET -25.15693 0.02248979 -1.271978
              CHANNELS 3 Zrotation Xrotation Yrotation
              End Site
              {
                OFFSET -15 0 0
              }
            }
          }
        }
      }
      JOINT left_manubrium
      {
        OFFSET 5.722621 16.35077 3.967754
        CHANNELS 3 Zrotation Xrotation Yrotation
        JOINT left_clavicle
        {
          OFFSET 13.16364 1.694482 -4.693211
          CHANNELS 3 Zrotation Xrotation Yrotation
          JOINT left_humerus
          {
            OFFSET 29.39168 -1.063119 -2.237045
            CHANNELS 3 Zrotation Xrotation Yrotation
            JOINT left_radius
            {
              OFFSET 24.59957 -0.9528479 0.9047498
              CHANNELS 3 Zrotation Xrotation Yrotation
              End Site
              {
                OFFSET 15 -0 -0
              }
            }
          }
        }
      }
    }
  }
}
MOTION
Frames: 21
Frame Time: 0.0416666666667
0 103.5113 0 2.196304 -1.138395 0.2727329 1.202658 -10.09286 8.657241 -0 33.78424 -0 -5.264783 -17.82023 -2.198066 -8.053322 10.07713 -23.44511 -0 5.218972 -0 7.651862 -16.17423 26.50937 -4.354907 -5.052752 4.978317 2.033477 9.199005 -7.732037 0.8474449 22.78628 7.168332 3.26695 -23.11154 8.798416 6.359188 -19.7364 11.56849 86.3243 35.94683 -19.8065 -0 0 16.22715 -7.582965 8.251665 4.621767 5.526153 -19.48551 -1.700315 -94.774 29.75168 22.87275 0 0 -16.03543 3.49659 17.89425 9.55711
0.3597962 103.387 1.421667 2.084065 -0.908981 0.4569447 1.373947 -11.02255 8.417767 -0 32.14015 -0 -5.304095 -17.17516 -1.927397 -7.959768 10.18175 -23.20937 -0 5.450682 -0 7.460762 -16.46504 26.20061 -4.320194 -4.873624 4.968108 2.132406 9.140859 -7.728688 0.8928045 22.64252 7.173027 3.319769 -23.2553 8.809382 6.313514 -19.63419 11.55181 86.34637 35.92623 -19.88351 -0 0 16.07566 -7.632946 8.301347 4.6528 5.640205 -19.54284 -1.707517 -94.65763 29.71932 22.62975 0 0 -16.3736 3.538807 17.78853 9.526674
0.7478907 103.1941 2.993634 1.943 -0.5734227 0.6000632 1.575306 -12.24929 8.060585 -0 29.54132 -0 -5.355176 -16.2379 -1.48555 -7.85053 10.3139 -22.8512 -0 5.842929 -0 7.171747 -16.85219 25.73075 -4.278371 -4.638339 4.96844 2.266547 9.05592 -7.714781 0.9593861 22.43919 7.175645 3.395858 -23.4497 8.820111 6.239666 -19.47709 11.52612 86.39235 35.89656 -20.00107 -0 0 15.84508 -7.70521 8.375904 4.696679 5.806992 -19.63231 -1.711561 -94.48631 29.66774 22.27416 0 0 -16.85636 3.59687 17.63721 9.475074
1.170321 102.9148 4.766089 1.786651 -0.1433521 0.7068414 1.780664 -13.65009 7.599368 -0 26.04967 -0 -5.423818 -15.05876 -0.8802046 -7.736412 10.4553 -22.37388 -0 6.439553 -0 6.77633 -17.28463 25.09449 -4.228042 -4.368677 4.981993 2.424962 8.947868 -7.689908 1.042185 22.18863 7.175049 3.490546 -23.67928 8.826334 6.138656 -19.26637 11.49182 86.46878 35.859 -20.15776 -0 0 15.53679 -7.798702 8.475636 4.752799 6.013425 -19.74953 -1.711036 -94.26753 29.59385 21.82551 0 0 -17.45014 3.665629 17.44424 9.405311
1.629327 102.5452 6.787836 1.623879 0.3589743 0.7886891 1.974531 -15.05826 7.061642 -0 21.88345 -0 -5.523991 -13.72801 -0.1494543 -7.618966 10.58046 -21.78388 -0 7.325364 -0 6.25288 -17.67638 24.27787 -4.157022 -4.09099 5.003538 2.59272 8.822754 -7.659744 1.130661 21.90973 7.171656 3.595509 -23.92398 8.821559 6.016039 -19.00533 11.44975 86.58339 35.81564 -20.35066 -0 0 15.15288 -7.91362 8.602318 4.822113 6.231947 -19.88194 -1.707782 -94.01445 29.49255 21.32055 0 0 -18.09581 3.736903 17.21186 9.328887
2.121762 102.1028 9.107644 1.460353 0.9026402 0.8639004 2.15187 -16.26027 6.486183 -0 17.3823 -0 -5.672395 -12.37042 0.6465295 -7.492369 10.65521 -21.08846 -0 8.630457 -0 5.568412 -17.90618 23.25794 -4.043577 -3.836778 5.021774 2.750858 8.68848 -7.634791 1.20945 21.62743 7.166852 3.699167 -24.15897 8.796665 5.880876 -18.69792 11.40103 86.74598 35.76959 -20.57606 -0 0 14.69448 -8.051627 8.7595 4.907138 6.422093 -20.0101 -1.706378 -93.74445 29.35686 20.8105 0 0 -18.71157 3.799682 16.9404 9.264542
2.639998 101.6257 11.77333 1.299894 1.454052 0.9552742 2.315487 -17.0542 5.911946 -0 12.89511 -0 -5.879253 -11.10996 1.446593 -7.348892 10.64062 -20.29681 -0 10.47917 -0 4.700208 -17.8545 22.02266 -3.867086 -3.633542 5.02651 2.881542 8.553518 -7.624536 1.263831 21.36619 7.161606 3.79008 -24.36017 8.742596 5.742826 -18.34992 11.34772 86.96269 35.72391 -20.8271 -0 0 14.16552 -8.215405 8.950383 5.011071 6.544809 -20.1147 -1.711891 -93.4744 29.18076 20.34561 0 0 -19.21947 3.843854 16.63031 9.230524
3.175221 101.1634 14.82599 1.147156 1.978236 1.083737 2.468603 -17.3007 5.367703 -0 8.67805 -0 -6.142599 -10.03953 2.206537 -7.185411 10.48516 -19.42266 -0 12.94541 -0 3.658212 -17.43891 20.59434 -3.620188 -3.49397 5.018645 2.972966 8.426998 -7.629589 1.285123 21.14499 7.154633 3.860121 -24.50812 8.65249 5.609843 -17.972 11.29501 87.22699 35.68114 -21.08739 -0 0 13.57918 -8.409753 9.175781 5.137873 6.576904 -20.18326 -1.727207 -93.21677 28.96124 19.96083 0 0 -19.57203 3.863824 16.28424 9.236828
3.721043 100.7647 18.28917 1.012517 2.428922 1.258534 2.605764 -16.90294 4.871538 -0 4.886578 -0 -6.448539 -9.228634 2.900064 -7.00694 10.09361 -18.48536 -0 16.07082 -0 2.489886 -16.60993 19.03903 -3.313806 -3.411845 5.018872 3.018766 8.321656 -7.635301 1.271321 20.97992 7.140575 3.904288 -24.58338 8.519825 5.488707 -17.58319 11.25468 87.51196 35.64459 -21.3211 -0 0 12.96375 -8.645728 9.434507 5.294734 6.513031 -20.2106 -1.75172 -92.9798 28.69711 19.67586 0 0 -19.75605 3.858614 15.9073 9.283695
4.275638 100.4698 22.15642 0.915909 2.740837 1.466687 2.708762 -15.76706 4.435266 -0 1.611733 -0 -6.773862 -8.742272 3.51201 -6.82502 9.306129 -17.50947 -0 19.89787 -0 1.271761 -15.33447 17.46124 -2.975657 -3.363816 5.069786 3.01527 8.255924 -7.61034 1.225184 20.88855 7.109429 3.919236 -24.56128 8.336078 5.386174 -17.21225 11.24657 87.76847 35.61982 -21.46834 -0 0 12.36407 -8.943524 9.72452 5.494077 6.36084 -20.1963 -1.781422 -92.76936 28.38702 19.50131 0 0 -19.78352 3.830216 15.50617 9.363917
4.840926 100.3092 26.38708 0.8824004 2.846673 1.670298 2.75421 -13.81589 4.066856 0 -1.102786 0 -7.091493 -8.633951 4.034682 -6.64919 7.945547 -16.52065 -0 24.44565 -0 0.08860362 -13.60342 15.97759 -2.640744 -3.319208 5.220534 2.960731 8.248865 -7.517889 1.152148 20.88687 7.049972 3.903403 -24.4173 8.093382 5.30749 -16.89136 11.29204 87.93902 35.61316 -21.46108 -0 0 11.83136 -9.326859 10.04273 5.750355 6.135537 -20.14288 -1.810507 -92.58909 28.03003 19.44117 0 0 -19.67997 3.782105 15.08802 9.466717
5.419216 100.3043 30.9152 0.9315152 2.70849 1.817106 2.725119 -11.0386 3.769424 0 -3.265823 0 -7.375732 -8.920967 4.468715 -6.478279 5.900764 -15.53875 -0 29.62638 -0 -0.9889731 -11.46014 14.68542 -2.339769 -3.253867 5.502298 2.855741 8.310668 -7.333396 1.058909 20.98136 6.955298 3.858228 -24.13859 7.790558 5.252619 -16.6477 11.4024 87.97663 35.62776 -21.24658 -0 0 11.41033 -9.814289 10.38372 6.074714 5.856677 -20.05493 -1.83314 -92.43886 27.62786 19.4915 0 0 -19.4745 3.718246 14.65942 9.581685
6.01045 100.4623 35.66392 1.071372 2.331894 1.858001 2.611855 -7.510722 3.538292 0 -4.946051 0 -7.599356 -9.574745 4.825974 -6.299294 3.152989 -14.57202 -0 35.14707 -0 -1.907285 -9.029163 13.66087 -2.098067 -3.156727 5.917376 2.702231 8.437675 -7.05218 0.9535391 21.16526 6.825168 3.788398 -23.72754 7.436461 5.212537 -16.50546 11.57234 87.84374 35.66103 -20.7863 -0 0 11.14363 -10.4209 10.73849 6.475683 5.550137 -19.93862 -1.842916 -92.31328 27.18567 19.64008 0 0 -19.19674 3.642587 14.22582 9.700249
6.61254 100.7636 40.55802 1.29929 1.762335 1.763886 2.406384 -3.382213 3.358617 0 -6.273473 0 -7.725763 -10.52691 5.132217 -6.090083 -0.2490331 -13.61376 -0 40.44258 -0 -2.619405 -6.532884 12.97636 -1.941799 -3.029 6.441929 2.501831 8.612687 -6.687094 0.8463445 21.41956 6.665189 3.701026 -23.19806 7.049879 5.167131 -16.4944 11.77927 87.49811 35.70376 -20.03838 -0 0 11.08664 -11.16665 11.09362 6.963914 5.252308 -19.80142 -1.831074 -92.20105 26.71154 19.8675 0 0 -18.87888 3.558877 13.79151 9.815143
7.224293 101.1521 45.5332 1.604486 1.068946 1.534874 2.101889 1.154881 3.210143 0 -7.410467 0 -7.711733 -11.68575 5.423045 -5.823414 -4.215318 -12.64503 -0 44.78257 -0 -3.087113 -4.250441 12.69674 -1.897203 -2.880479 7.036488 2.256052 8.810456 -6.261763 0.7487776 21.71785 6.484487 3.604042 -22.57079 6.655295 5.089921 -16.64782 11.99005 86.89513 35.74055 -18.95847 -0 0 11.30275 -12.07497 11.43248 7.551546 5.005278 -19.65114 -1.78775 -92.08768 26.21523 20.15083 0 0 -18.55322 3.470288 13.3598 9.920493
7.848561 101.5419 50.54199 1.970013 0.3195998 1.195887 1.698738 5.910964 3.079747 0 -8.482511 0 -7.524885 -12.95858 5.730495 -5.474488 -8.622439 -11.64546 -0 47.57105 -0 -3.295967 -2.40969 12.84873 -1.979353 -2.725032 7.660883 1.968685 9.00764 -5.801921 0.669944 22.03347 6.292925 3.504277 -21.86973 6.275413 4.960525 -16.98543 12.17449 86.01404 35.75159 -17.52839 -0 0 11.8324 -13.15758 11.73928 8.243654 4.840259 -19.4938 -1.707422 -91.96216 25.70669 20.47001 0 0 -18.24179 3.378236 12.9333 10.01387
8.494209 101.8397 55.55758 2.371923 -0.4313231 0.7827291 1.208267 10.71362 2.969923 0 -9.514887 0 -7.155915 -14.25753 6.071119 -5.030098 -13.29518 -10.60584 -0 48.54007 -0 -3.259891 -1.113932 13.40161 -2.182914 -2.579372 8.281462 1.648387 9.189043 -5.331542 0.6145533 22.34154 6.100686 3.406837 -21.12297 5.928207 4.773993 -17.49896 12.3135 84.88034 35.71505 -15.78235 -0 0 12.66931 -14.40241 12.00241 9.030807 4.764715 -19.33121 -1.593852 -91.82225 25.19623 20.81184 0 0 -17.94527 3.280085 12.51378 10.09974
9.17647 101.9725 60.57808 2.775692 -1.136548 0.3263621 0.652515 15.38336 2.898819 0 -10.40029 0 -6.618195 -15.48416 6.441028 -4.499418 -17.96955 -9.539919 -0 47.73111 -0 -3.015537 -0.3432598 14.26739 -2.480067 -2.465887 8.867295 1.310421 9.347375 -4.87548 0.5835191 22.61399 5.920607 3.315776 -20.36716 5.630285 4.542793 -18.14841 12.39826 83.57197 35.61018 -13.81655 -0 0 13.75727 -15.77154 12.2154 9.886871 4.759681 -19.15932 -1.462299 -91.67603 24.69646 21.17 0 0 -17.63612 3.166384 12.10187 10.19319
9.914815 101.9085 65.62888 3.13768 -1.750367 -0.1587185 0.06016526 19.7222 2.893122 0 -10.91891 0 -5.942485 -16.52381 6.816946 -3.923211 -22.29918 -8.491751 -0 45.39521 -0 -2.615243 0.006541227 15.31626 -2.826006 -2.412118 9.386856 0.97554 9.481066 -4.46086 0.5752256 22.81804 5.768712 3.234436 -19.64728 5.398881 4.292937 -18.86901 12.4272 82.20654 35.4232 -11.77679 -0 0 15.00261 -17.20766 12.37731 10.77259 4.786112 -18.96925 -1.337291 -91.53951 24.22262 21.54251 0 0 -17.26318 3.021528 11.69697 10.31865
10.72805 101.661 70.75624 3.42006 -2.238388 -0.6749183 -0.5431065 23.55176 2.974532 0 -10.83732 0 -5.169156 -17.26978 7.164788 -3.368346 -25.9583 -7.526458 -0 41.87904 -0 -2.113722 0.06339026 16.41645 -3.175853 -2.440511 9.813483 0.6636005 9.592871 -4.111452 0.5865967 22.9262 5.659333 3.164835 -19.00413 5.247059 4.053316 -19.59206 12.40428 80.90459 35.15393 -9.814617 -0 0 16.30287 -18.64985 12.49269 11.64664 4.80254 -18.75308 -1.243557 -91.42807 23.78838 21.92655 0 0 -16.77732 2.831362 11.29832 10.49883
11.62863 101.2745 76.01269 3.608255 -2.592331 -1.229788 -1.143287 26.7438 3.150804 0 -9.992829 0 -4.342691 -17.63749 7.446226 -2.912184 -28.73546 -6.712796 -0 37.55946 -0 -1.554537 -0.07432858 17.46939 -3.502889 -2.557128 10.13109 0.3871403 9.690141 -3.842477 0.6139181 22.92824 5.599828 3.107641 -18.46113 5.178107 3.846993 -20.26101 12.3381 79.76252 34.81781 -8.05341 -0 0 17.56605 -20.04495 12.5714 12.47388 4.781949 -18.51101 -1.198055 -91.34667 23.4019 22.31016 0 0 -16.16019 2.591265 10.90625 10.74286
